<?xml version="1.0" encoding="UTF-8"?><svg id="Calque_2" xmlns="http://www.w3.org/2000/svg" viewBox="0 0 1642.47 597.46"><defs><style>.cls-1{fill:#e6f2ff;stroke-width:0px;}</style></defs><path class="cls-1" d="m891.88,129.69c-3.4-2.71-7.99-4.52-14.12-4.52s-10.88,1.81-14.29,4.52c-3.4,2.71-5.61,6.33-7.14,9.95-1.87,4.16-2.89,9.05-3.06,14.29v78.33c.17,5.43,1.19,10.31,3.06,14.47,1.53,3.62,3.74,7.05,7.14,9.77,3.4,2.89,8.16,4.52,14.29,4.52s10.71-1.63,14.12-4.52c3.4-2.71,5.78-6.15,7.31-9.77,1.87-4.16,2.89-9.05,3.06-14.47v-18.27h-17.18v18.27c0,1.99-.17,3.62-.68,4.88-.85,2.71-2.38,4.89-6.29,4.89-1.53,0-2.72-.54-3.57-1.45-1.7-1.99-2.72-4.52-2.89-8.32v-78.33c.17-1.81.34-3.44.85-4.88.85-2.35,2.38-4.89,5.61-4.89,1.87,0,3.4.54,4.25,1.45,1.87,2.17,2.72,4.7,2.72,8.32v18.27h17.18v-18.27c-.17-5.24-1.19-10.13-3.06-14.29-1.53-3.62-3.91-7.24-7.31-9.95Z"/><polygon class="cls-1" points="953.61 181.61 939.33 181.61 939.33 126.62 920.96 126.62 920.96 259.58 939.33 259.58 939.33 201.69 953.61 201.69 953.61 259.58 971.98 259.58 971.98 126.62 953.61 126.62 953.61 181.61"/><rect class="cls-1" x="993.24" y="126.62" width="18.37" height="132.97"/><path class="cls-1" d="m1070.27,129.69c-3.4-2.71-7.99-4.52-14.12-4.52s-10.89,1.81-14.29,4.52c-3.4,2.71-5.61,6.33-7.14,9.95-1.87,4.16-2.89,9.05-3.06,14.29v78.33c.17,5.43,1.19,10.31,3.06,14.47,1.53,3.62,3.74,7.05,7.14,9.77,3.4,2.89,8.16,4.52,14.29,4.52s10.71-1.63,14.12-4.52c3.4-2.71,5.78-6.15,7.31-9.77,1.87-4.16,2.89-9.05,3.06-14.47v-18.27h-17.18v18.27c0,1.99-.17,3.62-.68,4.88-.85,2.71-2.38,4.89-6.29,4.89-1.53,0-2.72-.54-3.57-1.45-1.7-1.99-2.72-4.52-2.89-8.32v-78.33c.17-1.81.34-3.44.85-4.88.85-2.35,2.38-4.89,5.61-4.89,1.87,0,3.4.54,4.25,1.45,1.87,2.17,2.72,4.7,2.72,8.32v18.27h17.18v-18.27c-.17-5.24-1.19-10.13-3.06-14.29-1.53-3.62-3.91-7.24-7.31-9.95Z"/><polygon class="cls-1" points="1152.41 126.62 1134.56 126.62 1119.25 170.94 1118.4 173.11 1117.72 173.11 1117.72 126.62 1099.35 126.62 1099.35 259.58 1117.72 259.58 1117.72 212.55 1121.97 201.69 1122.99 198.98 1123.5 198.98 1124.01 201.69 1136.77 259.58 1154.62 259.58 1135.58 170.39 1152.41 126.62"/><polygon class="cls-1" points="1170.78 259.58 1212.78 259.58 1212.78 239.5 1189.14 239.5 1189.14 202.96 1206.15 202.96 1206.15 181.61 1189.14 181.61 1189.14 146.7 1212.78 146.7 1212.78 126.62 1170.78 126.62 1170.78 259.58"/><polygon class="cls-1" points="1284.21 248.63 1284.21 126.62 1267.37 126.62 1267.37 202.05 1266.35 202.05 1264.82 195.9 1246.96 126.62 1230.64 126.62 1230.64 259.58 1247.48 259.58 1247.48 184.14 1248.5 184.14 1250.03 190.29 1267.88 259.58 1278.68 259.58 1278.68 259.63 1605.06 259.63 1605.06 248.63 1284.21 248.63"/><rect class="cls-1" x="1288.72" y="450.85" width="192.9" height="11"/><path class="cls-1" d="m952.04,352.25c0-46.8-18.52-71.38-61.95-71.38h-36.37v247.48h36.37v-104.38h9.76l18.86,104.38h36.37l-23.23-119.87c13.8-9.43,20.2-31.65,20.2-56.23Zm-44.78,32.66c-5.39,4.71-12.12,5.39-17.17,5.39v-73.4c5.05,0,11.78.34,17.17,5.05,5.39,4.71,9.77,14.14,9.77,31.65s-4.38,26.6-9.77,31.31Z"/><path class="cls-1" d="m1050.8,477.51c0,3.7-.34,6.73-1.35,9.09-1.35,5.05-4.38,9.09-10.77,9.09-3.03,0-5.39-1.01-7.07-2.7-3.37-3.7-5.05-8.42-5.05-15.49v-196.64h-36.36v196.64c.34,10.1,2.36,19.19,6.06,26.94,3.03,6.73,7.41,13.13,14.14,18.18,6.74,5.39,16.16,8.42,28.28,8.42s21.21-3.03,27.95-8.42c6.73-5.05,11.45-11.45,14.48-18.18,3.71-7.75,5.72-16.84,6.06-26.94v-196.64h-36.36v196.64Z"/><path class="cls-1" d="m1174.81,311.51c5.72,0,9.43,4.71,11.78,11.45,2.36,7.07,2.7,16.16,2.7,24.24l35.69-3.36c0-13.81-2.02-30.31-9.09-43.77-7.07-13.13-19.87-22.23-41.75-21.89-17.17.34-28.96,8.08-36.7,18.85-7.74,11.11-10.77,25.59-10.77,39.06,0,6.74,1.01,13.47,3.03,19.87,3.7,13.13,9.76,25.93,17.84,38.38,8.08,12.46,15.83,23.91,22.9,34.01,3.37,5.05,6.4,10.1,9.43,14.82,5.39,9.77,9.43,19.19,9.43,27.27,0,15.83-4.04,27.27-14.82,27.27-7.75,0-11.78-5.39-14.14-13.47-2.69-7.75-3.03-18.18-3.03-28.62l-35.69,3.36c0,18.52,1.68,36.37,9.09,49.83,7.41,13.47,20.54,22.23,43.77,22.23,19.87,0,32.32-7.41,40.07-18.86,7.75-11.45,10.44-26.94,10.44-43.44,0-13.47-4.38-26.26-10.77-38.72-6.4-12.46-14.81-25.25-23.23-37.71-7.07-10.44-14.14-20.2-19.53-29.63-5.39-9.43-9.09-18.18-9.09-26.6,0-14.48,3.03-24.24,12.46-24.58Z"/><polygon class="cls-1" points="1642.46 318.89 1642.46 307.89 1352.02 307.89 1352.02 280.87 1246.96 280.87 1246.96 318.24 1281.31 318.24 1281.31 528.35 1317.67 528.35 1317.67 461.85 1481.62 461.85 1481.62 450.85 1317.67 450.85 1317.67 369.42 1568.29 369.42 1568.29 358.42 1317.67 358.42 1317.67 318.24 1333.4 318.24 1333.4 318.89 1642.46 318.89"/><path class="cls-1" d="m406,313.5c0,27.07,17.72,49.02,39.57,49.02s39.57-21.95,39.57-49.02-17.72-49.02-39.57-49.02-39.57,21.95-39.57,49.02Zm67.84,20.4c-2.85,6.86-6.98,13.16-12.44,17.98,5.5-10.17,9.3-20.71,10.09-32.08,1.25-16.54-5.08-32.33-15.45-45.28,19.43,12.3,26.65,38.41,17.8,59.38Z"/><path class="cls-1" d="m483.95,267.2c-4.41.08-6.9,1.76-8.68,5.79,3.97,3.4,10.32-.81,8.68-5.79Z"/><path class="cls-1" d="m497.96,289.68c-4.37-.6-7.09.69-9.46,4.39,3.4,3.97,10.32.78,9.46-4.39Z"/><path class="cls-1" d="m492.21,315.59c1.74,4.93,9.34,4.45,10.41-.68-3.86-2.13-6.86-1.92-10.41.68Z"/><path class="cls-1" d="m497.88,340.16c-.14-5.24-7.54-7.06-10.12-2.52,3.04,3.19,5.95,3.93,10.12,2.52Z"/><path class="cls-1" d="m479.68,351.54c1.49,4.14,3.85,6,8.25,6.39,1.99-4.85-4.05-9.5-8.25-6.39Z"/><path class="cls-1" d="m522.93,101.84c-10.18-5.98-15-6.25-38.81-13.53-20.58-6.3-24.03-8.26-31.15-6.64-10.69,2.43-17.23,10.09-20.17,13.53-6.51,7.62-15.52,23.16-10.12,31.36,3.71,5.65,10.59,2.26,28.7,5.69,19.05,3.61,36.93,12.19,45.51,16.31,12.49,5.99,16.38,9.29,21.96,7.4,5.36-1.81,8.94-8.36,16.09-21.45,5.81-10.63,5.72-13.21,5.62-14.3-.76-8.32-9.63-13.69-17.62-18.38Zm-51.79-6.07c-5.93-1.08-11.49-2.57-17.05.05-5.19,2.15-9.57,6.4-13.76,11.03-4.09,4.51-7.32,9.88-9.99,15.83.39-12.72,9.57-27.14,21.44-32.39,6.91-3.15,13.75-1.46,20.54.91,6.15,1.99,12.24,4.53,17.77,8l-18.94-3.43Z"/><path class="cls-1" d="m647.65,295.75c5.22,1.41,10.9-2.73,12.66-9.23,1.76-6.5-1.06-12.94-6.28-14.35-.68-.18-1.38-.28-2.08-.28-1.82,0-3.68.62-5.38,1.81-2.48,1.74-4.32,4.47-5.19,7.69s-.65,6.51.61,9.26c1.2,2.62,3.22,4.42,5.67,5.08Z"/><path class="cls-1" d="m605.87,251.35c3.53-3.31,21.53-18.89,42.68-13.6,8.62,2.16,14.89,7.06,18.74,10.77,2.32,2.51,4.78,6.1,5.95,10.85.58,2.39,2.39,9.77-1.19,12.94-2.74,2.42-6.06,1.4-10.15.2,3.01,3.88,4.18,9.52,2.65,15.16-2.05,7.6-8.32,12.75-14.84,12.75-.39,0-.78-.04-1.17-.08-.02,5.03-3.42,10.53-7.81,13.5-5.47,3.7-11.59,2.87-13.96,2.55-17.96-2.42-27.46-24.84-28.51-27.4,0,.08-.02.21-.03.36,3.1,24.77,20.82,43.81,42.15,43.81,23.51,0,42.64-23.14,42.64-51.57s-19.13-51.57-42.64-51.57c-14.18,0-26.76,8.42-34.51,21.34Z"/><path class="cls-1" d="m590.27,19.09c2.11,3.57-1.94,9.86-3.67,13.26,4.46-4.44,11.35-14.14,2.5-17.91-3.98-1.59-8.33-1.45-12.41-1.19-5.35.43-10.55,1.46-15.66,2.73-25.36,6.34-49.71,19.14-67.2,38.79,21.03-14.89,43.98-26.23,68.68-33.31,5.97-1.58,23.35-7.04,27.75-2.37Z"/><path class="cls-1" d="m708.55,65.96c-24.45-25.89-66.32-29.15-97.47-14.21-10.51,4.99-20.08,11.83-27.89,20.21,17.42-12,36.89-20.55,57.9-22.62,23.69-2.39,47.67,2.81,67.46,16.62Z"/><path class="cls-1" d="m707.53,74.39c-11.07,7.03-22.57,12.95-35.02,16.91-12.3,3.9-25.28,7.4-37.75,10.83,9.93-.22,19.77-2.01,29.39-4.37,16.16-3.69,31.87-11.27,43.38-23.38Z"/><path class="cls-1" d="m579.95,39.33c-10.62,7.05-19.57,16.67-25.87,27.74,9.49-8.45,18.12-17.68,25.87-27.74Z"/><path class="cls-1" d="m798.17,205.28c-4.12,3.5-8.66,6.15-13.87,6.76-12.17,1.05-19.78-8.81-30.79-14-16.29-7.93-35.49-5.71-51.68.78,16.4-2.44,34.3-3.78,49.49,3.72,5.59,2.69,10.93,6.82,16.69,9.66,11.2,5.99,22.89,3.49,30.17-6.91Z"/><path class="cls-1" d="m787.74,161.42c8.38,8.85,12.86,20.69,13.49,32.93.94-6.18.55-12.64-1.1-18.84-5.98-22.6-28.25-34.92-48.43-43.1-20.29-8.56-43.1-11.84-64.86-8.87,21.65,1.31,42.77,5.52,62.51,14.3,13.8,6.04,28,12.43,38.38,23.58Z"/><path class="cls-1" d="m791.7,232.81c18.81-5.86,29.96-28.49,29.87-46.99-.09-19.38-11.51-32.98-22.67-43.71-18.35-17.66-41.22-27.47-63.51-32.72-14.86-3.5-29.46-4.98-42.28-5.4,2.03-1.04,4.03-2.14,6-3.3,6.22-3.68,13.54-8.02,19.52-13.05,6.38-5.37,11.23-11.54,11.55-18.56.87-19.48-33.83-35.9-57.56-40.86-15.65-3.27-30.61-2.53-44.08.26-3.23.67-6.38,1.45-9.43,2.33-6.77,1.95-13.06,4.34-18.74,6.88-.62.28-1.24.56-1.85.84.28-.39.53-.76.8-1.15,9.02-12.83,11.5-22.14,7.78-28.68-7.84-13.77-40-9.44-67.78.76-6.82,2.5-13.38,5.36-19.24,8.39-4.91,2.54-10.07,5.55-15.27,8.93,0,0-1.2,1.14-1.81,1.19-23.92,2.04-47.18,7.28-69.28,15.52l-4.4-9.43c-1.63-3.49-5.81-5.01-9.3-3.39l-24.64,11.49c-3.49,1.63-5.01,5.81-3.39,9.3l4.39,9.42c-14.63,8.3-28.52,18.07-41.5,29.21l-7.01-7.01c-2.72-2.72-7.18-2.72-9.9,0l-19.23,19.23c-2.72,2.72-2.72,7.18,0,9.9l7.04,7.04c-11.78,13.77-22,28.57-30.58,44.19l-9.53-4.25c-3.52-1.57-7.68.03-9.24,3.55l-11.06,24.84c-1.57,3.52.03,7.68,3.55,9.24l9.36,4.17c-7.71,21.54-12.57,44.17-14.43,67.4h-11.39c-3.85,0-7,3.15-7,7v27.19c0,3.85,3.15,7,7,7h11.26c1.85,25,7.22,49.29,15.83,72.32l-9.78,4.56c-3.49,1.63-5.01,5.81-3.39,9.3l2.96,6.35H27.7v11h246.77l3.4,7.29c1.63,3.49,5.81,5.01,9.3,3.39l9.8-4.57c8.36,14.72,18.2,28.69,29.43,41.73l-7.85,7.85c-2.72,2.72-2.72,7.18,0,9.9l19.23,19.23c2.72,2.72,7.18,2.72,9.9,0l7.93-7.93c13.97,11.9,28.99,22.21,44.84,30.83l-4.01,9.01c-1.57,3.52.03,7.68,3.55,9.24l24.84,11.06c3.52,1.57,7.68-.03,9.24-3.55l4.01-9.01c21.24,7.5,43.52,12.24,66.38,14.06v10.22c0,3.85,3.15,7,7,7h21.4c.04,13.04,1.04,27.58,5.65,28.53,5.19,1.07,13.44-15.41,17.62-27.57,2.48-7.22,3.8-13.72,4.5-19.61,19.59-2.59,38.67-7.34,56.96-14.15l4.61,9.88c1.63,3.49,5.81,5.01,9.3,3.39l24.64-11.49c3.49-1.63,5.01-5.81,3.39-9.3l-4.59-9.85c14.46-8.19,28.19-17.81,41.04-28.77l8.21,8.21c2.72,2.72,7.18,2.72,9.9,0l19.23-19.23c2.72-2.72,2.72-7.18,0-9.9l-8.14-8.14c12.38-14.38,23.05-29.9,31.93-46.31l9.95,4.43c3.52,1.57,7.68-.03,9.24-3.55l11.06-24.84c1.57-3.52-.03-7.68-3.55-9.24l-10.04-4.47c7.51-21.43,12.24-43.89,13.98-66.96h10.14c3.85,0,7-3.15,7-7v-27.19c0-3.85-3.15-7-7-7h-10.21c-.92-11.76-2.63-23.37-5.08-34.76.47.03.94.04,1.42.04,2.42,0,4.96-.37,7.7-1.22Zm-313.36,252.82c-16.61,7.96-28.07,17.91-39.6,35.68-93.6-35.29-160.36-125.76-160.36-231.55,0-120.34,86.39-220.87,200.4-242.87-7.62,7-14.42,14.5-19.55,22.11-.75-.06-1.47-.09-2.17-.09-1.89,0-3.73.2-5.81.62-15.18,3.09-24.37,14.14-28.79,19.45-2.15,2.58-18.27,22.59-16.43,38.8-3.58,8.89-5.16,18.46-.51,25.71,1.72,2.68,3.86,4.3,6.41,5.3-23.23,29.56-32.02,64.92-22.77,73.01.46.4.95.7,1.47.95-7.28,17.91-7.77,34.36-8.11,46.72-.27,9.94.29,19.72,1.71,29.81-2.45,1.41-4.85,3.3-6.94,5.85-7,8.53-7.29,20.04-5.23,27.98,1.7,6.56,5.02,11.24,9.1,12.84,3.47,1.37,6.27.15,8.9-1.38-.7,3.21-2.04,6.04-4.15,8.8-2.04,2.67-3.96,4.15-6.61,6.19-3.48,2.68-8.25,6.34-15.48,14.6-20.31,23.19-16.56,27.88-15.15,29.65,2.15,2.7,5.44,1.82,8.93.89,3.29-.88,7.8-2.08,13.73-1.63,4.87.37,7.5,1.58,11.13,3.24,2.4,1.1,5.12,2.35,8.93,3.53,8.92,2.77,16.31,2.6,30.14,2.01-6.51,11.14-10.53,25.33-10.82,38.45-.33,14.89,4.09,26.51,12.12,31.88,4.02,2.68,8.53,3.49,12.51,3.49,5.49,0,9.97-1.53,10.77-1.82,6.78-2.46,15.59-8.9,18.11-18.98.17-.69.29-1.36.39-2.02,6.69-.83,13.78-5.01,18.21-10.34,6.51-7.81,8.48-19.57,5.24-29.58,1.56.23,3.14.38,4.74.47-.89,3.27-1.12,6.59-1.21,9.74-.22,7.77,2.65,15.26,7.33,22.02-6.62,4.36-2.38,11.76-20.58,20.48Zm79.75-361.75c3.09,3.74,5.16,7.92,5.2,12.56.04,5.79-1.7,5.02-10.17,20.35-11.76,21.29-14.47,25.26-16.59,26.8-.07.05-.52.33-.93.57-16.89,9.82-44.75-18.8-87.2-26.81-16.81-3.17-26.93-1.42-33.28-3.39-1.07-.3-1.97-.71-2.76-1.26-1.17-.75-2.17-1.75-3.04-3.1-2.68-4.17-2.78-9.58-1.41-15.31.13.25.28.49.42.74.07,1.38.67,3.43,1.07,4.17,4.64,8.74,15.47,4.65,40.51,10.89,38.45,9.59,66.32,32.55,81.79,23.46.17-.1.49-.29.88-.54,8.8-5.67,10.77-14.26,15.79-25.62,6.68-15.11,9.51-14.24,9.79-20.79.04-.94,0-1.84-.08-2.72Zm71.57,79.32c3.71,7.07,6.72,14.2,9.13,21.17l.03.05c.47-.02,1.03-.03,1.56-.03,26.61,0,48.26,25.66,48.26,57.19s-21.65,57.19-48.26,57.19-48.26-25.66-48.26-57.19c0-24.26,12.82-45.04,30.85-53.33-.03,0,.03-.08-.04-.04-4.51-7.36-10.11-14.61-17.11-21.26-10.4-9.9-30.21-28.74-51.01-33.39,1.94-3.41,4.27-7.56,7.08-12.66,3.3-5.97,5.57-9.52,7.23-12.11.28-.44.54-.84.79-1.23,15.42,5,41.45,20.76,59.74,55.64Zm-7.15-63.32c8.22,2.67,15.95,6.88,22.96,12.11,20.91,15.69,34.86,40.9,36.28,67.04-6.01-17.56-13.93-34.09-25.47-48.57-9.58-12-20.99-21.85-33.76-30.58Zm40.34,210.89c-3.48,9.43-10.28,17.86-19.12,23.45-13.32,8.54-32.14,10.34-45.32.5-12.76-9.48-17.24-27.63-13.69-42.32.41,25.58,15.53,47.57,43.35,42.33,14.35-2.7,26.35-11.74,34.78-23.94Zm-109.04,56.64c-16.94,11.22-54.92,28.96-77.45,15.75-1.1-.65-2.09-1.32-3.14-2.04-2.5-1.71-5.32-3.64-10.11-5.33-8.13-2.88-13.75-2.2-22.24-1.18-4.46.54-10.01,1.21-17.37,1.53-14.65.64-22,.96-30.45-1.66-3.47-1.08-5.9-2.19-8.26-3.28-3.84-1.76-7.16-3.28-13.01-3.73,9.64-1.57,19.24-2.66,29.04-2.45,5.25.07,11,.31,16.12-1.13,9.28-2.21,15.98-10.71,16.98-19.92-1.7,3.07-3.54,5.97-5.86,8.29-7.27,7.86-17.24,7.14-27.16,6.76-12.9-.16-25.88,2.77-37.31,8.68-3.01.4-5.52,1.05-7.45,1.56-1.04.28-2.27.61-3.02.71.2-2.39,4.14-9.82,14.91-22.11,6.87-7.85,11.2-11.18,14.68-13.85,1.59-1.22,3.05-2.36,4.48-3.71,3.72-.47,7.21-.54,10.93.25,5.06,1.05,9.33,3.31,14.17,5.84-2.31-8.93-12.3-13.58-20.56-11.57,2.64-4.06,4.05-8.42,4.42-13.49,1.56-.57,3.31-.97,5.43-.98h.11c1.66,0,3.2.24,4.64.64,11.1,17.28,29.69,28.63,50.72,28.63,9.7,0,19.15-1.7,27.32-6,23.63-8.31,42.66-25.84,47.86-49.04,4.01.98,8.22,2.18,12.6,3.65,10.27,3.45,19.03,7.59,26.3,11.64-1.81,22.94-5.39,44.79-8.97,61.4-2.61,2.11-5.39,4.17-8.36,6.14Zm6.42,2.39c-2.95,12.36-6.5,24.83-10.04,38.09-9.39-5.95-15.84-13.36-21.11-19.43-.46-.53-.9-1.04-1.35-1.55,11.38-4.26,21.76-9.9,29.18-14.82,1.14-.75,2.23-1.52,3.32-2.29Zm-78.48,41.65l-4.37-19.58,1.39,21.6-4.85-21.73,1.36,21.08-5.46-24.45,1.62,25.21-5.17-23.19,1.79,27.74-5.72-25.62,1.7,26.34-5.4-24.22,1.33,20.67c-.73-1.26-1.49-2.54-2.28-3.85-4-6.64-8.53-14.16-10.81-25.16-.45-2.16-.77-4.38-1-6.6,5.73-.59,9.77-.58,15.36,1.4,4.09,1.45,6.39,3.02,8.81,4.67,1.08.74,2.2,1.5,3.47,2.25,2.74,1.6,5.65,2.8,8.69,3.67.05.1.1.2.14.3,2.46,5.47,2.82,12.01,1.31,17.87l-2.84-12.71.92,14.32Zm-32.73,5.92c-.19.75-.43,1.46-.71,2.13-.07.1-.12.22-.17.37-.25.56-.52,1.1-.81,1.6l-.68-8.3-.77,10.41c-.53.67-1.08,1.26-1.63,1.79l-1.26-15.45-1.3,17.58c-.25.18-.49.34-.71.47l-1.78-21.81-1.73,23.39c-.07.02-.13.04-.2.06l-2.1-25.72-1.84,24.8-2.24-27.46-2,27.06-2.38-29.23-2.09,28.24-1.97-24.23-1.71,23.15c-.22-.23-.42-.48-.62-.72l-1.57-19.29-1.07,14.49c-.86-2.6-.96-5.03-.92-6.49,1.17-10.62,4.74-21.92,10.69-31.33.31-.49.62-.96.93-1.42,4.72-.32,8.6-.76,11.91-1.15.25,2.39.61,4.77,1.09,7.09,1.43,6.9,3.71,12.58,6.15,17.44,1.36,3.15,2.73,7.6,1.49,12.5Zm2.94-256.55c-18.51,3.41-36.47,9.72-52.48,19.66-1.7,1.13-4.1-.42-3.79-2.42,1.15-9.74,3.57-19.38,7.42-28.4,3.78-8.98,8.88-17.46,15.32-24.76-6.98,12.51-12.39,25.81-15.43,39.79-.66,2.96-1.2,5.94-1.66,8.94,15.42-8.48,33.01-13.29,50.62-12.82Zm-55.41,32.26c11.93-2.55,33.45-19.4,71.5-24.01,17.42-2.11,49.54-4.81,72.77,9.19,17.63,10.63,26.36,33.8,29.77,61.11-7.19-1.16-17.2-2.16-24.03-2.66-9.11-.66-17.09-.26-23.56.48-11.68-17.19-31.8-28.55-54.69-28.55-.55,0-7.97-.77-11.23-.77-31.31,0-57.21,25.17-61.03,57.59-1.85.22-4.09.64-6.47,1.43-1.21-9.22-1.69-18.18-1.44-27.29.36-13,.82-28.95,8.42-46.54Zm60.43,20.45c30.51,0,55.23,27.29,55.23,60.96s-24.73,60.96-55.23,60.96c-21.6,0-40.3-13.7-49.38-33.65-4.11-8.39-6.45-17.93-6.45-28.06,0-20.73,9.77-39.05,24.6-49.9-1.86,1.54-3.62,3.19-5.29,4.92,9.74-9.48,22.51-15.24,36.52-15.24Zm-61.39,57.66c-.03.85-.06,1.71-.06,2.57,0,11.21,2.63,21.76,7.26,31.01-.36-.02-.72-.04-1.09-.04-.05,0-.1,0-.15,0-6.13.04-10.2,2.49-13.18,4.29-2.78,1.67-3.87,2.21-5.18,1.7-2.28-.9-4.52-4.44-5.72-9.03-1.63-6.29-1.53-16.09,4.14-23,4.14-5.04,9.9-6.86,13.97-7.5Zm156.96-7.65c-10.35-3.18-19.55-3.34-25.7-2.98.56,3.39,1.23,10.33-1.6,18.28-2.14,6.01-5.41,10.17-7.59,12.53,2.01-5.51,2.71-10.2,2.98-13.36,1.04-12.14-2.55-21.63-4.34-26.21-1.3-3.34-2.65-5.96-3.57-7.66,8.38-1.68,20.22-3.12,34.27-1.88,7.08.62,16.9,2.59,24.37,4.43.76,8.53,1.06,17.38.99,26.3-5.01-3.18-11.49-6.89-19.79-9.44Zm-1.92-182.43c.04,5.16-1.52,4.47-9.06,18.12-1.31,2.37-2.49,4.5-3.56,6.41-1.07,1.91-2.03,3.61-2.9,5.12-.73,1.27-1.38,2.4-1.98,3.42-.82,1.4-1.54,2.58-2.16,3.57-.13.21-.26.42-.39.62-1.89,2.96-2.89,4.08-3.78,4.72-.05.03-.28.18-.55.35-.09.05-.18.11-.27.16-.43.25-.87.46-1.31.66-.07.03-.13.06-.2.09-.43.18-.86.33-1.3.46-.08.02-.17.05-.25.07-.45.12-.9.23-1.36.3-.07.01-.13.02-.2.03-.47.07-.95.13-1.44.16-.02,0-.03,0-.05,0-.32.02-.65.03-.98.03-.13,0-.27-.01-.4-.02-.21,0-.42-.01-.62-.02-.34-.02-.67-.05-1.02-.08-.21-.02-.42-.04-.63-.07-.37-.05-.75-.11-1.12-.18-.19-.03-.37-.06-.56-.1-.51-.1-1.03-.22-1.56-.35-.06-.01-.11-.02-.17-.04-.59-.15-1.19-.32-1.8-.5-.19-.06-.38-.12-.57-.18-.43-.14-.86-.27-1.29-.42-.23-.08-.47-.17-.71-.25-.4-.14-.8-.29-1.21-.45-.25-.1-.5-.19-.75-.29-.41-.16-.83-.33-1.25-.5-.25-.1-.5-.2-.75-.31-.46-.19-.92-.39-1.39-.6-.22-.09-.43-.19-.65-.28-.65-.29-1.31-.59-1.98-.89-.03-.02-.07-.03-.1-.05-.72-.33-1.45-.67-2.19-1.02-.21-.1-.42-.2-.63-.3-.54-.26-1.09-.52-1.64-.78-.26-.13-.53-.26-.8-.39-.54-.26-1.09-.53-1.64-.79-.39-.19-.79-.38-1.19-.58-.58-.28-1.17-.57-1.76-.86-.47-.23-.95-.46-1.43-.69-.36-.17-.71-.34-1.07-.52-.66-.32-1.32-.63-1.99-.95-.18-.09-.36-.17-.54-.26-.8-.38-1.61-.76-2.43-1.14-.28-.13-.57-.26-.86-.39-.57-.26-1.15-.53-1.74-.79-.34-.15-.68-.3-1.02-.46-.54-.24-1.09-.48-1.64-.72-.36-.16-.73-.32-1.09-.47-.55-.24-1.11-.47-1.68-.71-.36-.15-.72-.3-1.09-.45-.61-.25-1.23-.5-1.84-.74-.32-.13-.64-.26-.97-.39-.9-.35-1.8-.7-2.72-1.03-.05-.02-.1-.04-.15-.06-.96-.35-1.93-.7-2.91-1.04-.32-.11-.64-.21-.96-.32-.68-.23-1.36-.45-2.04-.67-.38-.12-.77-.24-1.15-.36-.64-.2-1.28-.39-1.93-.58-.41-.12-.81-.23-1.22-.35-.65-.18-1.31-.36-1.97-.53-.4-.11-.81-.21-1.21-.31-.72-.18-1.44-.35-2.17-.52-.35-.08-.7-.17-1.06-.24-1.08-.24-2.18-.47-3.28-.67-4.07-.77-7.68-1.2-10.92-1.48-.03,0-.06-.02-.09-.03,0,0-.02.01-.02.02-3.91-.33-7.28-.42-10.15-.53-1.13-.04-2.19-.09-3.17-.16-.66-.05-1.29-.1-1.89-.17-3.9-.46-6.6-1.52-8.55-4.55-.21-.32-.4-.66-.57-1-.07-.13-.12-.26-.18-.39-.1-.21-.2-.43-.29-.64-.07-.17-.13-.35-.19-.53-.06-.18-.13-.36-.18-.54-.06-.21-.11-.41-.16-.62-.04-.16-.08-.31-.11-.47-.05-.24-.09-.47-.13-.72-.02-.13-.04-.27-.06-.4-.04-.27-.07-.54-.09-.81,0-.1-.02-.21-.02-.31-.02-.3-.03-.61-.04-.92,0-.07,0-.13,0-.2,0-.35,0-.69.02-1.05h0s0,0,0,0c.2-4.22,1.65-8.87,3.69-13.38h0s0,0,0,0c.19-.43.39-.85.6-1.27.01-.03.03-.06.04-.08.2-.41.4-.81.6-1.21.02-.05.05-.09.07-.14.2-.39.4-.77.6-1.15.03-.06.06-.12.1-.18.2-.37.4-.74.6-1.11.04-.07.08-.14.12-.21.2-.36.4-.71.6-1.06.05-.08.09-.16.14-.24.2-.34.4-.67.6-1.01.06-.09.11-.19.17-.28.19-.32.39-.64.59-.95.06-.1.12-.2.19-.3.19-.3.38-.6.57-.9.07-.11.14-.22.21-.33.18-.28.37-.56.55-.84.08-.12.16-.24.24-.35.18-.26.35-.52.53-.78.09-.13.18-.25.26-.38.17-.24.33-.48.5-.71.1-.14.2-.28.3-.42.15-.21.31-.43.46-.64.11-.15.23-.3.34-.46.14-.18.27-.37.41-.55.13-.17.26-.34.39-.51.12-.15.23-.3.35-.45.16-.2.31-.4.47-.59.08-.1.17-.21.25-.32.24-.29.47-.58.7-.85,1.06-1.27,2.36-2.84,3.92-4.51.39-.42.8-.84,1.22-1.27,1.27-1.29,2.69-2.61,4.27-3.89,4.21-3.41,9.55-6.52,16.17-7.87.4-.08.78-.15,1.17-.21.02,0,.03,0,.05,0,.37-.06.73-.11,1.1-.15.03,0,.06,0,.08,0,.35-.04.71-.07,1.06-.09.04,0,.07,0,.11,0,.35-.02.7-.03,1.07-.03.02,0,.04,0,.06,0,.04,0,.07,0,.11,0,.22,0,.44,0,.66.01.04,0,.09,0,.13,0,.26.01.53.03.8.05.07,0,.13.01.2.02.23.02.47.04.71.07.06,0,.11.01.17.02.29.03.58.07.88.11.07,0,.14.02.21.03.26.04.52.08.79.12.07.01.14.02.2.03.32.05.66.11,1,.18.07.01.14.03.21.04.3.06.6.12.91.18.08.02.16.03.25.05.37.08.76.16,1.15.25.07.02.15.03.22.05.34.08.7.16,1.06.25.1.02.2.05.31.07.43.1.87.21,1.33.33.08.02.16.04.23.06.4.1.82.21,1.24.32.12.03.25.06.37.1.5.13,1.01.26,1.54.41.08.02.16.04.24.06.48.13.97.26,1.47.4.15.04.29.08.44.12.58.16,1.18.32,1.8.5.02,0,.05.01.07.02.61.17,1.24.35,1.89.53.17.05.34.09.51.14.67.19,1.36.38,2.07.58,37.47,10.62,44.11,13.96,48.47,16.7.14.09.28.18.42.26.63.4,1.28.82,1.95,1.25.03.02.05.03.08.05,7.85,5.06,17.44,11.8,19.18,20.52.02.09.03.18.05.27.05.3.1.61.13.91.01.11.03.21.04.32.04.39.06.79.06,1.19h0Zm-13.71,366.17c-18.48-6.55-40.87-24.65-40.33-44,.1-3.72.4-6.88,1.42-9.82,8.11-.28,16.54-2.1,24.63-4.74.86.97,1.74,1.97,2.67,3.04,5.74,6.62,12.8,14.75,23.55,21.22-2.84,10.81-5.62,22.18-8.05,34.45-1.24-.03-2.53-.08-3.88-.13Zm31.83-67.49c-.85,2.26-1.65,4.55-2.39,6.86-4.43,13.95-7.85,28.22-10.86,42.56-4.71,22.24-8.27,44.66-10.99,67.2-1.29,10.63-2.38,21.29-3.32,31.97-.51,5.76-.97,11.52-1.4,17.28-.9-49.2,5.16-98.69,18.25-146.16,2.02-6.45,7.98-28.13,13.26-31.17,3.23-1.21,3.88,2.52,3.87,4.79.13,4.97-.23,9.75.34,14.61,1.72,17.56,14.61,13.93,26.07,7.3-7.67,5.66-20.81,12.07-26.5.45-3.36-7.02-2.69-14.98-3.32-22.47-1.26,2.07-2.07,4.47-3,6.78Zm90.46,18.69c-7.78,19.07-14.49,35.53-33.25,45.48-16.47,8.73-41.51,11.63-54.1,4.35,7.84-15.26,20.16-32.22,37.12-55.57,11.05-15.21,15.01-18.44,28.23-34.74l-19.43,35.9,25.52-32.37-20.1,37.13,28.05-35.58-21.18,39.14,26.97-34.21-21.28,39.32,26.27-33.31-19.84,36.65,26.51-33.62c-3.72,7.27-6.67,14.51-9.49,21.43Zm47.79-64.25c-1.49,1-2.97,2.01-4.41,3.02-9.39,6.65-16.59,13.89-22.35,21.37l17.67-32.65-26.27,33.31,19.84-36.65-26.97,34.21,21.28-39.32-28.05,35.58,21.18-39.14-25.52,32.37,16.81-31.07c5.57-7.45,9.46-12.93,12.3-17.5,1.44-2.33,2.81-4.76,4.12-7.29.27.04.54.07.81.11,15.44,2.39,34.89,15.49,34.73,26.8-.1,6.67-7.42,11.62-15.17,16.85Zm46.71,11.52c-10.14-7.41-19.86-13.9-28.92-19.38,1.81-2.63,2.95-5.55,3-8.92.22-15.49-22.72-29.43-38.57-32.27,13.12-28.61,18.11-67.55,9.81-104.16,9.47-3.72,19.36-7.44,34.33-5.68,13.68,1.61,22.45,6.71,30.19,11.21.54.31,1.08.63,1.62.94,5.18,19.9,7.94,40.77,7.94,62.27,0,34.03-6.92,66.46-19.4,95.99Zm26.95-160.07c-4.11-.84-8.09-3.14-13.09-6.05-1.74-1.01-3.58-2.08-5.54-3.14-7.05-3.84-15.74-7.69-27.74-9.09-2.97-.35-5.76-.5-8.41-.5-11.97,0-20.89,3.2-28.84,6.31-5.09-18.02-13.54-35.23-26.02-50.09-32.28-38.44-77.55-46.19-103.4-50.55-3.43-.58-8.38-1.41-14.44-2.16-4.78-8.18-14.16-14.16-21.02-18.54-5.37-3.42-12.48-6.9-50.37-17.63-5.8-1.64-10.25-2.87-13.89-3.74,6.7-9,16.04-18.04,26.15-26.07,9.73-7.73,20.18-14.52,29.71-19.45,7.24-3.74,14.78-6.87,22.19-9.37,25.93-8.77,50.23-9.91,54.2-2.92,1.13,1.99,1.89,7.75-9.07,22.48-2.82,3.79-6.44,8.19-11.01,13.27-.29.32-.56.62-.85.95l-20.33,22.34,25.45-16.28c2.07-1.32,4.41-2.74,6.98-4.2,5.84-3.3,12.9-6.78,20.89-9.73.81-.3,1.62-.59,2.45-.88,8.33-2.9,17.59-5.17,27.46-6.09,9.18-.86,18.89-.55,28.87,1.53,24.63,5.15,51.76,20.22,51.21,32.67-.2,4.55-4.2,9.17-9.47,13.43-5.45,4.41-12.26,8.44-17.68,11.64-3.63,2.15-7.41,4.07-11.29,5.77-4.31,1.89-8.76,3.5-13.31,4.81l-34,9.74,35.32-1.9c7.35-.4,16.25-.54,26.03-.02,9.99.53,20.9,1.75,32.02,4.12,22.28,4.74,45.38,14.06,63.56,31.56,9.95,9.58,20.14,21.58,20.22,37.99.09,17.49-10.79,35.12-24.25,39.31-3.17.99-5.95,1.07-8.66.51Z"/><rect class="cls-1" x="2.55" y="337.78" width="192.12" height="11"/><rect class="cls-1" x="0" y="208.08" width="237.57" height="11"/><rect class="cls-1" x="10.21" y="267.32" width="150.76" height="11"/></svg>